<svg width="70" height="70" viewBox="0 0 670.000000 373.000000" fill="none" xmlns="http://www.w3.org/2000/svg">
<g transform="translate(0.000000,550.000000) scale(0.100000,-0.100000)"
fill="#0F2137" stroke="none">
<path d="M3220 3254 c-322 -31 -621 -174 -855 -408 -265 -266 -406 -605 -407
-976 -1 -434 197 -840 537 -1105 502 -391 1208 -391 1710 0 451 351 641 944
480 1500 -28 96 -95 247 -147 330 -253 402 -676 647 -1143 659 -71 2 -150 2
-175 0z m-209 -549 c20 -13 58 -48 85 -78 l47 -54 43 19 c115 50 439 46 518
-8 16 -11 22 -8 52 27 66 79 158 139 196 127 33 -11 49 -179 24 -251 -14 -37
-13 -39 20 -78 57 -68 77 -156 78 -334 0 -165 -11 -208 -75 -302 -59 -85 -192
-166 -309 -188 -73 -14 -71 -11 -47 -63 20 -43 22 -65 25 -289 l3 -243 -235 0
-236 0 0 113 0 112 -87 -3 c-72 -3 -99 0 -147 19 -63 23 -138 89 -166 144 -43
87 -89 155 -134 198 -58 56 -52 72 24 62 60 -7 115 -47 169 -124 48 -69 96
-104 165 -122 44 -11 139 -6 162 9 6 4 14 28 18 53 4 26 15 63 25 82 21 41 22
39 -53 53 -138 24 -278 121 -334 231 -45 87 -55 149 -49 293 6 154 21 214 73
291 34 51 35 55 23 96 -13 49 -8 172 10 217 10 25 15 28 44 22 17 -4 48 -17
68 -31z"/>
</g>
</svg>


